<?xml version="1.0" standalone="no"?>
<!DOCTYPE svg PUBLIC "-//W3C//DTD SVG 20010904//EN"
 "http://www.w3.org/TR/2001/REC-SVG-20010904/DTD/svg10.dtd">
<svg version="1.0" xmlns="http://www.w3.org/2000/svg"
 width="1024.000000pt" height="1024.000000pt" viewBox="0 0 1024.000000 1024.000000"
 preserveAspectRatio="xMidYMid meet">

<g transform="translate(0.000000,1024.000000) scale(0.100000,-0.100000)"
fill="#000000" stroke="none">
<path d="M4665 8712 c-548 -221 -1267 -514 -1750 -712 -137 -57 -387 -158
-555 -225 -167 -68 -314 -132 -327 -143 -50 -45 -32 -135 32 -157 17 -5 33
-14 37 -20 4 -5 8 -139 8 -297 0 -247 -2 -289 -16 -302 -8 -9 -19 -16 -24 -16
-5 0 -36 -25 -69 -56 -64 -58 -92 -114 -106 -206 -13 -87 32 -204 104 -272 17
-17 31 -33 31 -38 0 -5 -11 -25 -23 -46 -71 -112 -134 -389 -202 -891 -17
-121 -21 -180 -14 -193 12 -22 54 -23 194 -3 112 16 319 19 440 5 201 -23 220
-23 234 -6 11 14 7 60 -29 308 -66 456 -111 652 -180 777 l-30 53 44 49 c69
77 90 130 91 224 0 66 -5 90 -26 135 -33 71 -68 112 -130 151 l-49 32 0 284
c0 266 1 284 18 279 9 -3 103 -24 207 -46 246 -53 452 -98 700 -155 110 -25
212 -48 228 -52 l27 -5 0 -339 0 -339 -42 -67 c-22 -38 -74 -133 -114 -213
-156 -313 -265 -639 -343 -1025 -34 -172 -67 -390 -77 -518 l-7 -88 -36 -18
c-100 -52 -246 -184 -341 -309 -210 -278 -324 -752 -279 -1160 30 -283 114
-517 250 -698 205 -274 409 -443 732 -608 329 -167 656 -260 1042 -296 125
-11 466 -11 375 0 -43 6 -29 7 60 7 137 0 135 0 230 18 l75 15 -65 -5 c-36 -3
-90 -8 -120 -10 -64 -5 -91 1 -84 19 7 19 -20 37 -55 38 -37 1 -43 28 -7 28
19 0 22 4 19 23 -4 21 -23 37 -65 53 -13 4 -18 17 -18 45 0 39 -16 54 -22 22
-3 -15 -4 -15 -17 0 -12 15 -11 17 3 17 13 0 16 10 16 49 0 44 -4 52 -40 85
-22 20 -40 39 -40 42 0 3 -11 15 -25 26 -32 25 -32 38 0 38 32 0 32 17 0 42
-19 15 -25 29 -25 61 0 51 -9 87 -21 87 -5 0 -9 -14 -9 -32 0 -17 -3 -28 -7
-25 -9 10 -10 127 0 127 4 0 7 14 7 30 0 17 -5 30 -12 30 -9 0 -9 3 0 12 7 7
12 25 12 40 0 24 4 28 30 28 17 0 30 5 30 10 0 6 7 10 15 10 9 0 15 9 15 23 0
14 13 35 29 50 30 26 41 26 41 -2 0 -9 9 -24 20 -34 17 -15 19 -24 14 -73 -5
-38 -3 -58 5 -63 7 -5 14 -52 18 -124 5 -101 8 -117 23 -117 23 0 97 -81 102
-111 2 -17 11 -25 27 -27 14 -2 43 -21 65 -43 23 -21 47 -39 54 -39 6 0 12 -4
12 -10 0 -5 -4 -10 -10 -10 -5 0 -10 -4 -10 -10 0 -6 37 -10 90 -10 50 0 90 3
90 8 0 4 12 13 27 19 20 10 29 10 34 2 4 -7 10 2 14 20 7 35 19 40 30 13 7
-15 9 -13 14 8 4 14 15 27 26 29 21 4 62 42 89 83 10 16 23 25 32 21 10 -4 14
2 14 21 0 15 8 30 20 36 11 6 30 31 41 55 12 25 25 45 30 45 5 0 9 9 9 21 0
11 9 33 20 49 11 15 17 30 13 34 -3 3 -1 6 5 6 6 0 16 10 23 22 10 18 9 20 -5
15 -10 -4 -15 -3 -11 3 3 6 13 10 21 10 17 0 19 16 2 26 -6 4 -14 2 -16 -4 -2
-7 -8 -12 -14 -12 -6 0 -3 9 7 20 13 14 21 17 26 9 11 -18 62 -2 55 17 -3 9 1
25 9 37 8 12 15 17 15 11 0 -5 -5 -15 -11 -21 -6 -6 -8 -17 -4 -23 6 -9 10 -9
16 1 6 10 9 6 9 -13 0 -35 28 -68 57 -68 17 0 23 -6 23 -23 0 -12 9 -28 20
-35 12 -7 18 -17 15 -21 -2 -5 2 -12 11 -15 9 -3 14 -13 11 -21 -5 -10 5 -16
38 -21 25 -3 53 -3 62 2 10 4 29 8 42 9 22 1 22 -1 -10 -28 -19 -16 -77 -57
-129 -92 -126 -83 -135 -94 -135 -162 0 -49 3 -58 32 -83 17 -16 29 -30 27
-33 -3 -2 7 -2 22 1 18 3 25 1 20 -6 -9 -15 38 -1 103 32 67 35 226 142 311
211 158 129 374 372 462 521 l33 55 70 -7 c122 -12 384 -7 496 10 264 41 384
105 419 227 22 73 -20 179 -86 220 -42 26 -35 33 41 43 159 20 358 96 407 155
40 47 54 101 39 151 -13 45 -62 106 -92 115 -22 7 -16 25 8 25 9 0 68 25 130
56 95 47 127 68 192 132 96 95 131 160 131 244 0 118 -68 204 -184 232 l-28 7
94 97 c136 140 189 241 189 358 0 156 -112 267 -253 251 -27 -4 -48 -5 -48 -4
0 1 16 46 35 100 73 203 108 464 85 635 -22 168 -60 272 -125 337 -46 46 -94
65 -163 65 -126 0 -179 -54 -488 -492 -123 -173 -322 -430 -401 -517 l-58 -63
-1 108 c-1 69 -9 150 -23 220 l-22 111 46 66 c106 152 156 312 156 504 0 178
-37 323 -118 457 -141 236 -372 394 -628 431 l-80 11 -7 49 c-12 81 -38 362
-38 409 l0 44 73 30 c39 17 178 72 307 122 409 160 933 370 980 392 25 12 52
31 60 42 16 22 24 100 10 91 -4 -3 -7 2 -6 11 0 9 -8 21 -19 28 -11 6 -22 14
-25 18 -10 13 -181 48 -208 43 -18 -4 -21 -3 -9 3 24 10 -968 255 -1003 247
-19 -4 -21 -3 -6 3 15 6 7 11 -36 20 -30 7 -63 10 -73 6 -11 -5 -16 -4 -12 3
4 6 -114 40 -301 86 -787 196 -1091 269 -1137 273 -46 4 -74 -5 -320 -104z
m2216 -379 c13 -17 13 -17 -6 -3 -11 8 -22 16 -24 17 -2 2 0 3 6 3 6 0 17 -8
24 -17z m46 1 c-3 -3 -12 -4 -19 -1 -8 3 -5 6 6 6 11 1 17 -2 13 -5z m-70 -10
c-3 -3 -12 -4 -19 -1 -8 3 -5 6 6 6 11 1 17 -2 13 -5z m226 -31 c-7 -2 -19 -2
-25 0 -7 3 -2 5 12 5 14 0 19 -2 13 -5z m45 -32 c11 -7 10 -9 -3 -14 -9 -4
-13 -3 -10 2 3 5 -3 12 -12 14 -13 3 -14 5 -3 6 8 0 21 -3 28 -8z m119 -7 c-3
-3 -12 -4 -19 -1 -8 3 -5 6 6 6 11 1 17 -2 13 -5z m-560 -40 c-3 -3 -12 -4
-19 -1 -8 3 -5 6 6 6 11 1 17 -2 13 -5z m708 -4 c-27 -12 -43 -12 -25 0 8 5
22 9 30 9 10 0 8 -3 -5 -9z m-758 -6 c-3 -3 -12 -4 -19 -1 -8 3 -5 6 6 6 11 1
17 -2 13 -5z m90 -20 c-3 -3 -12 -4 -19 -1 -8 3 -5 6 6 6 11 1 17 -2 13 -5z
m660 0 c-3 -3 -12 -4 -19 -1 -8 3 -5 6 6 6 11 1 17 -2 13 -5z m140 -9 c0 -8
-4 -12 -9 -9 -5 3 -6 10 -3 15 9 13 12 11 12 -6z m-730 -1 c-3 -3 -12 -4 -19
-1 -8 3 -5 6 6 6 11 1 17 -2 13 -5z m650 0 c-3 -3 -12 -4 -19 -1 -8 3 -5 6 6
6 11 1 17 -2 13 -5z m353 -75 c0 -15 -21 -21 -35 -9 -8 6 -20 9 -27 5 -7 -4
-5 0 5 8 18 15 57 12 57 -4z m-683 -5 c-3 -3 -12 -4 -19 -1 -8 3 -5 6 6 6 11
1 17 -2 13 -5z m588 -12 c-3 -3 -11 0 -18 7 -9 10 -8 11 6 5 10 -3 15 -9 12
-12z m-448 -28 c-3 -3 -12 -4 -19 -1 -8 3 -5 6 6 6 11 1 17 -2 13 -5z m540
-26 c-3 -7 -5 -2 -5 12 0 14 2 19 5 13 2 -7 2 -19 0 -25z m-494 15 c-7 -2 -19
-2 -25 0 -7 3 -2 5 12 5 14 0 19 -2 13 -5z m117 -29 c0 -2 -7 -4 -15 -4 -8 0
-15 4 -15 10 0 5 7 7 15 4 8 -4 15 -8 15 -10z m375 -32 l-28 -27 24 31 c13 17
26 30 28 27 3 -2 -8 -16 -24 -31z m-15 14 c0 -2 -8 -10 -17 -17 -16 -13 -17
-12 -4 4 13 16 21 21 21 13z m-2140 -31 c248 -29 286 -34 370 -56 47 -11 88
-24 92 -28 7 -6 65 -623 75 -805 6 -103 5 -108 -13 -103 -10 3 -55 11 -99 17
-44 6 -94 13 -111 15 l-31 5 -11 123 c-7 67 -21 255 -32 417 -23 333 -30 393
-26 210 2 -69 1 -110 -1 -91 -6 44 -54 91 -94 91 -30 0 -79 40 -79 65 0 8 -9
15 -19 15 -12 0 -23 9 -27 23 -8 28 -32 51 -69 66 -28 10 -26 11 20 7 28 -2
41 -2 31 1 -12 3 -15 8 -8 12 7 4 -5 7 -26 8 -20 0 -62 5 -92 10 -53 10 -53
11 -15 12 22 0 96 -6 165 -14z m1937 9 c-3 -3 -12 -4 -19 -1 -8 3 -5 6 6 6 11
1 17 -2 13 -5z m-2052 -24 c7 -11 -16 -11 -60 0 -28 7 -28 8 12 9 23 0 45 -3
48 -9z m-58 -16 c-3 -3 -12 -4 -19 -1 -8 3 -5 6 6 6 11 1 17 -2 13 -5z m390
-356 c-3 -8 -6 -5 -6 6 -1 11 2 17 5 13 3 -3 4 -12 1 -19z m20 -240 c-3 -8 -6
-5 -6 6 -1 11 2 17 5 13 3 -3 4 -12 1 -19z m-34 -571 c54 -7 96 -16 95 -22 -2
-5 -30 -32 -63 -60 -126 -107 -232 -284 -264 -442 -16 -78 -21 -88 -43 -94
-23 -6 -27 -2 -48 48 -36 87 -117 202 -199 284 -90 90 -142 127 -275 195 -92
48 -97 52 -70 58 32 6 228 33 284 39 84 9 494 4 583 -6z m703 -157 c193 -53
379 -238 438 -438 39 -133 28 -310 -28 -435 l-23 -52 -21 40 c-30 58 -63 101
-141 180 l-68 70 -6 105 c-4 82 -12 126 -37 203 -38 114 -124 252 -196 316
l-47 41 34 -7 c19 -3 61 -14 95 -23z m-2536 -41 c-164 -133 -326 -367 -361
-523 -6 -30 -15 -54 -18 -52 -8 5 -10 -25 -16 -224 -3 -128 -1 -177 10 -215 9
-27 13 -56 11 -64 -2 -9 -7 -28 -10 -43 -4 -16 -13 -28 -20 -28 -19 0 -25 -43
-14 -92 5 -22 6 -43 3 -46 -3 -3 -5 2 -5 12 0 9 -4 15 -9 12 -7 -5 -8 -101 -1
-116 1 -3 1 -15 1 -27 -1 -11 3 -24 8 -28 6 -3 11 -16 12 -28 1 -18 2 -17 9 6
5 16 6 35 3 43 -3 8 -1 14 5 14 12 0 21 -94 10 -98 -12 -6 -9 -22 3 -19 7 1
19 -18 28 -43 31 -84 72 -160 86 -160 11 0 14 -7 9 -24 -3 -13 -1 -27 4 -30 5
-3 9 0 8 7 0 6 4 12 9 12 6 0 9 -15 7 -32 -2 -24 1 -33 13 -33 8 0 15 -6 15
-13 0 -8 9 -22 19 -31 15 -13 20 -14 24 -4 4 11 7 11 18 0 12 -11 12 -14 -1
-22 -8 -5 -11 -13 -6 -17 5 -4 11 -2 13 5 3 6 11 12 18 12 7 0 16 6 19 13 3 6
3 2 0 -10 -4 -19 0 -22 42 -29 31 -4 42 -9 33 -15 -8 -5 -10 -9 -4 -9 5 0 4
-5 -2 -11 -12 -12 -56 -2 -48 11 3 4 -5 10 -18 14 -33 9 -37 7 -31 -9 4 -8 10
-15 16 -15 5 0 21 -11 36 -25 30 -28 47 -32 38 -10 -3 9 0 15 9 15 8 0 15 -4
15 -10 0 -5 15 -10 34 -10 18 0 47 -7 62 -15 28 -15 29 -15 7 -21 -30 -8 -29
-18 3 -33 20 -9 30 -9 40 0 11 9 14 8 14 -5 0 -9 -8 -17 -17 -17 -17 -1 -17
-2 0 -6 9 -2 17 -11 17 -19 0 -15 -15 -19 -23 -6 -2 4 -2 1 0 -6 1 -8 0 -24
-3 -38 -5 -19 -9 -22 -24 -14 -23 12 -33 13 -26 1 4 -5 2 -11 -3 -13 -6 -1 6
-21 26 -43 19 -22 38 -39 42 -37 3 1 6 -4 6 -10 0 -7 10 -21 22 -31 13 -10 22
-21 22 -25 -4 -26 2 -34 16 -22 10 9 15 9 15 1 0 -6 -5 -11 -11 -11 -6 0 -9
-7 -5 -15 10 -27 -3 -16 -20 18 -39 74 -220 257 -296 298 -10 5 -15 15 -12 21
4 7 3 8 -5 4 -6 -4 -25 2 -41 14 -43 30 -215 110 -242 111 -22 2 -22 2 2 7
l25 5 -25 8 c-24 7 -24 7 5 8 23 1 27 3 15 11 -12 7 -8 10 15 10 47 0 62 14
35 33 -12 9 -29 13 -36 10 -8 -3 -14 1 -14 11 0 9 7 16 15 16 17 0 20 17 5 22
-18 6 -39 81 -28 101 6 12 6 23 -2 32 -7 8 -9 19 -5 25 4 7 -2 18 -14 26 -14
10 -21 26 -21 49 0 18 -4 45 -10 59 -6 18 -6 26 1 26 6 0 4 6 -3 14 -10 10
-13 37 -11 100 1 49 -2 86 -7 86 -6 0 -10 16 -10 35 0 25 4 33 14 29 17 -6 26
43 14 75 -4 12 -4 20 0 17 12 -7 29 39 22 60 -6 16 -8 13 -14 -13 -4 -18 -11
-33 -16 -33 -12 0 -20 28 -9 32 7 2 8 18 4 41 -6 29 -11 37 -24 33 -9 -3 -6 2
7 10 27 20 29 38 2 31 -22 -6 -23 -5 -14 17 3 9 12 16 18 16 8 0 11 11 8 30
-3 23 0 30 12 30 9 0 16 7 16 15 0 8 -9 15 -20 15 -17 0 -20 7 -20 40 0 22 4
40 9 40 5 0 12 17 16 37 4 21 12 42 18 46 7 5 -1 6 -18 4 -16 -2 -25 -2 -20 0
6 2 21 22 33 44 13 23 19 38 12 34 -9 -5 -10 -1 -6 16 3 13 3 18 0 11 -3 -6
-10 -10 -15 -6 -13 7 -11 -10 2 -23 8 -8 4 -17 -13 -32 -14 -14 -24 -18 -27
-10 -2 6 2 15 9 19 6 4 13 20 15 36 1 15 8 30 14 32 6 2 11 10 11 18 0 25 80
175 90 169 5 -3 7 1 4 9 -6 16 22 76 36 76 5 0 7 6 4 13 -3 8 2 20 11 27 13
11 15 10 9 -6 -5 -18 -5 -18 6 -1 6 9 9 21 5 26 -9 16 50 105 81 121 29 15
205 87 214 89 3 0 -6 -9 -20 -20z m2221 -15 c133 -83 235 -244 264 -413 l7
-42 -59 29 c-134 67 -252 92 -436 92 l-129 0 6 28 c14 55 62 137 116 196 49
53 160 136 182 136 5 0 27 -12 49 -26z m-1522 -54 c389 -49 675 -396 648 -788
-7 -97 -26 -178 -59 -249 -100 -219 -298 -381 -521 -427 -469 -97 -897 250
-897 729 0 388 282 698 670 738 67 7 76 7 159 -3z m1454 -554 c286 -55 536
-270 636 -546 52 -144 72 -416 42 -570 -38 -192 -138 -388 -272 -530 l-42 -45
-18 57 c-50 169 -206 350 -385 449 -75 41 -111 49 -120 25 -10 -27 -91 -76
-126 -76 -79 0 -215 52 -270 103 -15 14 -29 23 -31 20 -10 -10 -105 114 -149
194 l-47 87 32 37 c74 86 149 242 189 389 18 68 22 112 22 221 l1 135 75 22
c41 13 95 27 120 31 73 14 262 12 343 -3z m-2645 -101 c0 -22 -2 -32 -5 -22
-2 9 -8 15 -12 13 -4 -3 -8 0 -8 7 0 7 -4 21 -7 32 -5 14 -2 12 9 -5 15 -24
15 -24 11 25 -4 38 -3 43 3 20 5 -16 9 -48 9 -70z m-24 -60 c5 -22 4 -26 -4
-15 -5 8 -10 24 -10 34 0 26 6 18 14 -19z m23 -17 c-3 -8 -6 -5 -6 6 -1 11 2
17 5 13 3 -3 4 -12 1 -19z m4548 -79 c20 -85 19 -298 -1 -414 -23 -134 -94
-338 -175 -497 -39 -78 -79 -154 -90 -169 -18 -26 -89 -148 -89 -154 0 -5 177
89 215 115 22 15 74 47 115 72 145 88 160 92 205 56 25 -19 27 -26 23 -73 -3
-37 -14 -65 -41 -106 -44 -66 -140 -165 -207 -213 -54 -39 -68 -37 -22 2 15
13 21 21 15 17 -18 -9 -16 11 3 29 8 9 11 16 5 16 -14 0 -33 -38 -26 -50 3 -6
2 -10 -3 -10 -6 0 -24 -14 -42 -30 -39 -37 -53 -31 -20 8 14 15 7 10 -15 -10
-34 -33 -37 -39 -24 -54 13 -16 12 -16 -11 -4 -23 12 -24 12 -11 -4 12 -14 12
-16 -1 -11 -9 4 -19 -3 -27 -17 -8 -16 -10 -17 -6 -4 6 20 6 20 -17 0 -12 -10
-37 -32 -54 -47 -31 -29 -42 -36 -189 -121 -69 -40 -75 -46 -50 -46 41 0 183
23 349 55 166 33 242 31 281 -5 52 -49 24 -121 -77 -195 -63 -46 -93 -55 -101
-32 -4 10 -7 10 -18 0 -17 -17 -37 -17 -21 -1 16 16 15 28 -3 28 -9 0 -15 -10
-15 -26 0 -14 -4 -23 -10 -19 -14 9 -52 -4 -45 -16 3 -5 -1 -6 -9 -3 -9 3 -13
11 -9 17 3 6 1 7 -6 3 -8 -5 -9 -12 -2 -19 6 -9 1 -12 -18 -13 -15 -1 -53 -17
-84 -37 -31 -20 -68 -39 -82 -43 -14 -3 -25 -10 -25 -14 0 -6 -170 -65 -245
-85 -5 -1 22 -5 60 -9 90 -8 199 -32 251 -56 36 -15 41 -21 37 -43 -3 -13 0
-27 5 -31 20 -12 -1 -45 -41 -65 -23 -11 -35 -21 -27 -22 18 -2 -46 -17 -110
-26 -35 -5 -40 -8 -25 -14 17 -6 15 -8 -10 -10 -48 -3 -79 2 -87 14 -6 9 -8 9
-8 0 0 -7 -8 -13 -17 -14 -16 0 -15 -2 2 -10 17 -8 16 -8 -5 -3 -14 3 -37 6
-52 6 -16 -1 -28 3 -28 9 0 6 -4 7 -10 4 -21 -13 -9 -27 20 -23 17 3 30 0 30
-5 0 -6 -27 -7 -72 -2 -40 4 -93 7 -116 6 -30 -1 -42 2 -37 9 4 7 16 9 27 7
11 -3 32 -1 47 4 24 10 25 11 7 21 -14 8 -21 7 -27 -3 -7 -11 -9 -10 -9 5 0
14 -5 17 -25 12 -14 -4 -25 -2 -25 4 0 5 -20 10 -44 10 -24 0 -60 7 -79 15
-46 19 -50 19 -42 -4 3 -11 1 -22 -5 -26 -5 -3 -10 1 -10 10 0 9 -4 14 -9 11
-19 -12 -30 60 -30 199 -1 217 -15 331 -72 561 l-30 121 56 78 c69 96 117 183
142 253 16 47 27 60 88 105 74 53 252 226 326 316 24 29 49 59 55 65 21 22
254 335 354 476 138 194 193 260 202 245 4 -7 14 -41 23 -76z m-4538 -234 c-9
-8 -18 -11 -22 -6 -3 6 3 14 12 20 24 13 29 6 10 -14z m23 -25 c0 -5 -4 -10
-10 -10 -5 0 -10 5 -10 10 0 6 5 10 10 10 6 0 10 -4 10 -10z m57 -42 c-3 -8
-6 -5 -6 6 -1 11 2 17 5 13 3 -3 4 -12 1 -19z m-80 -100 c-3 -8 -6 -5 -6 6 -1
11 2 17 5 13 3 -3 4 -12 1 -19z m70 -60 c-3 -7 -5 -2 -5 12 0 14 2 19 5 13 2
-7 2 -19 0 -25z m1548 -461 c14 -122 90 -284 177 -377 14 -15 24 -40 25 -63 2
-21 12 -57 22 -80 10 -23 26 -60 35 -82 11 -26 20 -35 25 -27 5 9 12 5 21 -14
8 -14 25 -30 38 -35 14 -5 22 -16 20 -26 -2 -14 3 -17 25 -15 23 3 28 0 25
-15 -2 -12 4 -19 20 -21 12 -2 22 -9 22 -17 0 -13 41 -21 133 -28 21 -1 42 -9
46 -16 6 -9 16 -11 32 -5 13 4 27 7 31 6 4 -1 4 6 1 14 -5 14 -1 16 25 12 23
-3 32 -1 32 10 0 9 6 12 16 8 8 -3 26 -3 40 0 19 5 24 13 25 38 1 23 3 25 6 8
4 -19 6 -20 19 -8 8 8 14 19 14 24 0 6 15 14 33 18 28 6 29 8 12 15 -11 4 -14
8 -7 8 7 1 23 11 35 22 17 17 18 21 5 16 -10 -4 -18 -2 -18 3 0 6 8 10 19 10
20 0 45 23 35 33 -4 3 12 28 35 54 32 38 37 49 25 53 -13 5 -12 9 6 25 21 19
22 19 36 1 17 -23 35 -73 70 -190 15 -53 36 -99 50 -113 34 -34 98 -31 174 7
33 17 61 30 64 30 6 0 34 -121 51 -219 59 -338 1 -771 -140 -1052 -54 -107
-154 -249 -184 -261 -34 -13 -166 -4 -212 16 -130 55 -264 236 -323 438 -14
46 -25 81 -26 78 -1 -3 -3 -32 -6 -65 -8 -105 -35 -248 -61 -320 -14 -38 -26
-80 -27 -92 0 -12 -3 -19 -5 -17 -7 7 -81 -138 -75 -148 3 -5 2 -7 -3 -6 -4 1
-38 -27 -74 -64 -52 -53 -76 -69 -119 -82 -64 -19 -95 -20 -141 -5 -150 51
-281 276 -335 574 -12 66 -18 151 -18 251 l-1 151 -25 -46 c-61 -111 -193
-257 -275 -306 -53 -31 -144 -55 -205 -55 l-47 0 24 103 c53 236 57 273 58
505 0 123 3 209 6 192 4 -17 9 -33 11 -36 14 -14 57 -11 106 6 31 11 64 17 74
14 10 -3 18 -1 18 4 0 6 -5 12 -12 14 -7 3 -6 9 6 19 9 7 23 20 31 27 24 21
40 13 17 -8 -31 -29 -27 -45 6 -22 25 17 81 38 68 25 -10 -10 24 -35 40 -29
10 4 40 -10 76 -34 33 -22 67 -40 74 -40 8 0 14 -7 14 -15 0 -8 9 -24 21 -36
15 -15 24 -18 34 -9 10 9 16 3 25 -25 6 -19 15 -35 19 -35 4 0 -11 48 -35 108
-47 118 -88 253 -107 350 l-12 63 -20 -40 c-45 -88 -150 -221 -174 -221 -18 0
-13 9 24 46 19 19 35 41 35 49 0 18 -16 20 -23 3 -4 -9 -6 -7 -6 3 -1 9 8 24
19 34 15 14 23 15 34 6 11 -9 16 -9 21 0 4 6 2 14 -4 18 -7 5 -9 15 -5 26 5
13 4 16 -4 11 -7 -4 -12 -1 -12 8 0 13 -13 16 -65 16 -37 0 -65 4 -65 10 0 6
-6 10 -13 10 -22 0 -60 47 -53 65 4 11 -5 22 -29 36 -39 23 -44 36 -17 41 13
3 10 8 -15 23 -17 10 -35 28 -38 39 -6 18 -8 19 -12 4 -5 -22 -4 -22 -39 -3
-24 12 -26 15 -9 16 17 1 17 2 3 6 -15 4 -18 16 -18 74 0 39 -4 69 -10 69 -6
0 -10 -32 -10 -75 0 -43 -4 -75 -10 -75 -6 0 -10 30 -10 71 0 54 4 75 16 84
14 10 13 13 -10 28 -14 10 -26 14 -26 11 0 -4 -9 3 -19 15 -14 16 -21 18 -24
9 -4 -10 -10 -8 -22 7 -14 18 -14 21 7 37 25 19 98 25 98 8 0 -5 18 -10 40
-10 22 0 40 4 40 8 0 4 35 7 78 6 54 -2 71 0 57 7 -15 7 -10 8 18 4 21 -4 48
-3 60 2 19 6 17 8 -18 14 l-40 7 46 -1 c37 -2 46 1 44 13 -2 12 5 15 32 12 29
-4 40 1 63 27 16 17 37 31 47 31 15 0 16 2 3 10 -13 8 -12 10 4 10 10 0 35 17
55 38 21 21 42 37 48 35 6 -2 14 1 18 6 3 6 1 11 -4 11 -6 0 -11 5 -11 10 0 6
9 10 20 10 11 0 20 5 20 12 0 6 14 24 31 39 17 15 32 35 33 46 2 10 10 17 20
15 12 -2 16 5 16 30 1 50 16 15 25 -55z m-1265 -41 c0 -2 -9 -6 -20 -9 -11 -3
-20 -1 -20 4 0 5 9 9 20 9 11 0 20 -2 20 -4z m-313 -52 c-3 -3 -12 -4 -19 -1
-8 3 -5 6 6 6 11 1 17 -2 13 -5z m1233 -134 c0 -5 -2 -10 -4 -10 -3 0 -8 5
-11 10 -3 6 -1 10 4 10 6 0 11 -4 11 -10z m-53 -16 c-3 -3 -12 -4 -19 -1 -8 3
-5 6 6 6 11 1 17 -2 13 -5z m48 -14 c-3 -5 -12 -10 -18 -10 -7 0 -6 4 3 10 19
12 23 12 15 0z m-555 -20 c0 -5 -12 -10 -26 -10 -14 0 -23 4 -19 10 3 6 15 10
26 10 10 0 19 -4 19 -10z m-734 -85 c213 -55 426 -238 539 -463 108 -217 149
-478 115 -748 -33 -263 -144 -576 -317 -894 -16 -30 -36 -66 -42 -79 -11 -19
-15 -21 -23 -10 -8 11 -9 10 -4 -4 6 -18 -26 -76 -69 -128 l-22 -26 1 42 c1
24 4 47 9 51 10 10 9 34 -2 34 -5 0 -11 -7 -13 -16 -3 -13 -5 -13 -23 0 -20
15 -20 15 3 16 14 0 22 6 22 16 0 14 -7 16 -40 11 -30 -4 -40 -2 -40 9 0 8 10
14 24 14 14 0 27 4 31 10 3 5 -15 8 -47 5 -29 -2 -43 -2 -31 1 21 5 41 40 29
51 -3 4 -6 -1 -6 -10 0 -10 -6 -17 -13 -17 -26 0 -28 14 -5 32 22 17 22 18 3
18 -12 0 -25 -4 -31 -10 -6 -6 -15 -6 -24 0 -12 8 -10 10 8 10 12 0 22 5 22
11 0 7 -10 9 -26 6 -18 -3 -24 -1 -20 9 3 7 1 16 -5 20 -6 3 -8 12 -5 20 4 10
-4 14 -28 14 -30 0 -33 2 -30 27 l4 28 -11 -27 c-11 -30 -39 -38 -39 -13 0 9
-7 18 -15 21 -8 4 -15 15 -15 26 0 16 -5 19 -29 13 -17 -3 -32 -2 -36 4 -3 7
2 11 14 11 12 0 21 4 21 9 0 17 -20 23 -35 11 -11 -9 -14 -6 -17 12 -2 16 -12
25 -33 29 -16 4 -24 7 -17 8 15 1 16 27 2 36 -6 4 -17 1 -25 -5 -13 -11 -15
-7 -15 19 0 18 5 31 13 31 9 0 9 2 -1 8 -7 5 -10 16 -6 25 4 11 1 17 -8 17 -7
0 -21 8 -29 18 -9 9 -25 23 -35 30 -16 11 -13 11 24 6 27 -4 42 -2 42 5 0 6
-9 11 -19 11 -11 0 -23 5 -26 10 -4 6 -16 10 -27 8 -12 -2 -23 3 -25 10 -3 6
0 12 6 12 6 0 11 5 11 11 0 6 -10 9 -22 7 -17 -2 -22 -9 -20 -25 2 -13 -2 -23
-7 -23 -6 0 -11 7 -11 15 0 8 -5 15 -11 15 -7 0 -9 10 -5 26 5 17 3 23 -4 19
-5 -3 -11 0 -12 7 -3 29 -4 34 -16 56 -7 12 -17 22 -22 22 -15 0 -12 -48 3
-53 10 -4 10 -7 0 -18 -11 -11 -13 -10 -13 4 0 9 -4 17 -10 17 -5 0 -10 7 -10
15 0 9 -10 16 -27 16 l-28 2 28 4 c42 7 32 23 -15 24 -25 1 -32 3 -18 6 89 13
95 15 75 23 -11 4 -28 2 -39 -4 -14 -8 -20 -8 -23 2 -3 7 -11 19 -19 26 -8 8
-14 19 -14 24 0 5 -9 12 -20 15 -17 4 -20 14 -22 64 l-1 58 -6 -45 -6 -45 -7
55 c-13 102 10 339 48 500 20 81 71 212 103 265 14 22 25 54 25 72 0 32 18 49
38 36 7 -3 8 -1 4 5 -4 7 -3 12 3 12 5 0 8 15 7 34 -2 25 0 33 10 29 16 -6 19
-23 4 -23 -5 0 -10 -5 -10 -11 0 -8 5 -7 15 1 9 7 14 19 11 27 -3 7 1 13 9 13
8 0 15 4 15 10 0 5 -10 9 -22 7 -14 -1 -23 4 -26 16 -2 12 3 17 19 17 21 0 21
1 6 18 -10 10 -17 33 -17 51 0 18 -7 39 -16 48 -8 9 -13 22 -10 29 3 8 0 11
-9 8 -9 -4 -13 1 -12 16 1 16 21 31 82 61 134 67 266 81 411 44z m654 -33 c0
-4 -9 -8 -20 -9 -16 -1 -17 1 -7 12 12 13 27 11 27 -3z m45 -100 c-8 -8 -25
17 -25 38 0 9 6 6 16 -8 9 -13 13 -26 9 -30z m29 32 c4 -10 1 -14 -6 -12 -15
5 -23 28 -10 28 5 0 13 -7 16 -16z m-1249 -18 c-16 -12 -17 -16 -6 -30 16 -19
1 -22 -18 -3 -10 8 -12 8 -7 0 3 -6 1 -15 -5 -19 -8 -5 -9 -3 -4 6 6 9 2 10
-16 5 -17 -5 -11 3 21 28 24 20 46 34 49 31 2 -2 -4 -10 -14 -18z m36 -28 c11
-11 19 -32 19 -45 0 -34 -24 -24 -28 11 -2 15 -10 30 -18 33 -8 3 -14 9 -14
14 0 16 22 9 41 -13z m3140 -1 c-10 -9 -11 -8 -5 6 3 10 9 15 12 12 3 -3 0
-11 -7 -18z m1799 9 c0 -3 -4 -8 -10 -11 -5 -3 -10 -1 -10 4 0 6 5 11 10 11 6
0 10 -2 10 -4z m-40 -26 c13 -8 13 -10 -2 -10 -9 0 -20 5 -23 10 -8 13 5 13
25 0z m-5033 -33 c-12 -13 -24 -22 -26 -20 -6 4 30 43 40 43 5 0 -2 -10 -14
-23z m1364 -57 c5 0 9 -8 9 -17 0 -15 -4 -14 -19 6 -11 14 -16 32 -13 40 5 12
8 11 10 -6 2 -13 8 -23 13 -23z m3564 10 c-3 -5 -12 -10 -18 -10 -7 0 -6 4 3
10 19 12 23 12 15 0z m-3529 -44 c-8 -32 13 -82 27 -64 6 9 7 7 3 -6 -4 -10 4
-41 19 -72 14 -29 25 -61 26 -71 0 -16 1 -16 8 2 7 18 9 16 15 -12 4 -18 5
-36 3 -40 -6 -9 14 -89 32 -136 7 -19 8 -34 1 -45 -8 -15 -9 -15 -10 4 0 28
-57 229 -78 278 -9 22 -29 64 -44 94 -22 45 -24 58 -15 73 16 26 20 24 13 -5z
m21 -18 c-3 -7 -5 -2 -5 12 0 14 2 19 5 13 2 -7 2 -19 0 -25z m1630 -94 c-2
-2 -15 0 -28 6 -23 10 -23 10 -1 6 17 -3 22 1 23 17 2 21 2 21 6 -1 3 -13 3
-26 0 -28z m33 21 c0 -8 -4 -15 -10 -15 -5 0 -10 7 -10 15 0 8 5 15 10 15 6 0
10 -7 10 -15z m-1600 -75 c0 -8 -7 -2 -15 14 -19 36 -19 45 0 20 8 -10 14 -26
15 -34z m187 44 c-3 -3 -12 -4 -19 -1 -8 3 -5 6 6 6 11 1 17 -2 13 -5z m163
-208 c0 -3 -4 -8 -10 -11 -5 -3 -10 -1 -10 4 0 6 5 11 10 11 6 0 10 -2 10 -4z
m3255 -15 c3 -5 1 -12 -5 -16 -5 -3 -10 1 -10 9 0 18 6 21 15 7z m-35 -21 c8
-5 11 -10 5 -10 -5 0 -17 5 -25 10 -8 5 -10 10 -5 10 6 0 17 -5 25 -10z m-55
-34 c-11 -8 -24 -12 -29 -8 -5 3 -1 9 10 13 31 12 39 10 19 -5z m-45 -11 c0
-2 -10 -10 -22 -16 -21 -11 -22 -11 -9 4 13 16 31 23 31 12z m-3065 -15 c-3
-5 -11 -10 -16 -10 -6 0 -7 5 -4 10 3 6 11 10 16 10 6 0 7 -4 4 -10z m2962
-26 c-3 -3 -12 -4 -19 -1 -8 3 -5 6 6 6 11 1 17 -2 13 -5z m-44 -11 c-7 -2
-19 -2 -25 0 -7 3 -2 5 12 5 14 0 19 -2 13 -5z m-2726 -55 c-3 -8 -6 -5 -6 6
-1 11 2 17 5 13 3 -3 4 -12 1 -19z m36 -68 c4 -17 3 -19 -9 -9 -8 6 -14 18
-14 26 0 20 16 8 23 -17z m2817 -144 c0 -8 -73 -47 -78 -41 -3 3 0 5 7 5 7 0
9 5 5 12 -4 6 -3 8 3 5 6 -4 19 0 29 8 19 14 34 19 34 11z m-903 -48 c-3 -8
-6 -5 -6 6 -1 11 2 17 5 13 3 -3 4 -12 1 -19z m800 -4 c-3 -3 -12 -4 -19 -1
-8 3 -5 6 6 6 11 1 17 -2 13 -5z m-4852 -324 c-3 -5 -16 -10 -28 -9 -20 1 -20
2 3 9 14 4 26 8 28 9 2 1 0 -3 -3 -9z m2 -72 c-3 -8 -6 -5 -6 6 -1 11 2 17 5
13 3 -3 4 -12 1 -19z m150 -130 c-3 -8 -6 -5 -6 6 -1 11 2 17 5 13 3 -3 4 -12
1 -19z m88 -78 c3 -5 1 -10 -4 -10 -6 0 -11 5 -11 10 0 6 2 10 4 10 3 0 8 -4
11 -10z m115 -190 c0 -5 -4 -10 -10 -10 -5 0 -10 5 -10 10 0 6 5 10 10 10 6 0
10 -4 10 -10z m44 -25 c-10 -8 -26 -14 -34 -15 -8 0 -1 8 15 19 34 21 48 18
19 -4z m2373 -57 c-3 -8 -6 -5 -6 6 -1 11 2 17 5 13 3 -3 4 -12 1 -19z m-2342
2 c3 -5 1 -10 -4 -10 -6 0 -11 5 -11 10 0 6 2 10 4 10 3 0 8 -4 11 -10z m73
-50 c-1 -21 -1 -22 -5 -4 -3 17 -9 20 -31 16 l-27 -5 25 24 c21 20 26 21 32 9
4 -8 6 -26 6 -40z m114 -32 c-9 -9 -15 -9 -24 0 -9 9 -7 12 12 12 19 0 21 -3
12 -12z m-42 -34 c0 -8 -5 -12 -10 -9 -6 4 -8 11 -5 16 9 14 15 11 15 -7z
m987 -166 c-2 -13 -4 -5 -4 17 -1 22 1 32 4 23 2 -10 2 -28 0 -40z m-760 -120
c-3 -8 -6 -5 -6 6 -1 11 2 17 5 13 3 -3 4 -12 1 -19z m-36 -91 c-10 -9 -11 -8
-5 6 3 10 9 15 12 12 3 -3 0 -11 -7 -18z m1089 -437 c0 -12 -43 -23 -67 -17
-10 3 -4 5 15 6 17 0 32 6 32 11 0 6 5 10 10 10 6 0 10 -4 10 -10z m-143 -26
c-3 -3 -12 -4 -19 -1 -8 3 -5 6 6 6 11 1 17 -2 13 -5z m216 -1 c-7 -2 -19 -2
-25 0 -7 3 -2 5 12 5 14 0 19 -2 13 -5z"/>
<path d="M7767 8099 c7 -7 15 -10 18 -7 3 3 -2 9 -12 12 -14 6 -15 5 -6 -5z"/>
<path d="M5688 7943 c7 -3 16 -2 19 1 4 3 -2 6 -13 5 -11 0 -14 -3 -6 -6z"/>
<path d="M5658 7923 c6 -2 18 -2 25 0 6 3 1 5 -13 5 -14 0 -19 -2 -12 -5z"/>
<path d="M3675 6269 c-4 -6 -5 -12 -2 -15 2 -3 7 2 10 11 7 17 1 20 -8 4z"/>
<path d="M3655 6210 c-3 -5 -1 -10 4 -10 6 0 11 5 11 10 0 6 -2 10 -4 10 -3 0
-8 -4 -11 -10z"/>
<path d="M3626 6158 c-9 -17 -16 -36 -16 -42 0 -11 20 24 33 57 11 28 0 19
-17 -15z"/>
<path d="M3597 6043 c-4 -3 -7 -11 -7 -17 0 -6 5 -5 12 2 6 6 9 14 7 17 -3 3
-9 2 -12 -2z"/>
<path d="M3611 5474 c0 -11 3 -14 6 -6 3 7 2 16 -1 19 -3 4 -6 -2 -5 -13z"/>
<path d="M3635 4979 c-4 -17 -5 -33 -2 -36 8 -7 27 6 27 18 0 6 -5 7 -10 4 -7
-4 -9 2 -4 19 3 14 4 26 1 26 -3 0 -8 -14 -12 -31z"/>
<path d="M3648 4693 c6 -2 18 -2 25 0 6 3 1 5 -13 5 -14 0 -19 -2 -12 -5z"/>
<path d="M3658 4663 c7 -3 16 -2 19 1 4 3 -2 6 -13 5 -11 0 -14 -3 -6 -6z"/>
<path d="M4478 6156 c-132 -47 -223 -141 -264 -274 -18 -60 -18 -172 0 -240
28 -105 121 -213 222 -258 239 -106 509 14 586 259 24 78 23 87 -8 87 -41 0
-84 50 -84 99 0 39 17 91 30 91 3 0 14 6 25 13 17 13 17 16 -13 59 -112 163
-309 229 -494 164z m211 -196 c96 -96 -9 -247 -129 -185 -38 19 -60 63 -60
115 0 33 6 48 29 71 25 24 38 29 79 29 43 0 55 -5 81 -30z"/>
<path d="M8030 4339 c0 -5 5 -7 10 -4 6 3 10 8 10 11 0 2 -4 4 -10 4 -5 0 -10
-5 -10 -11z"/>
<path d="M7970 3840 c-9 -6 -10 -10 -3 -10 6 0 15 5 18 10 8 12 4 12 -15 0z"/>
<path d="M8019 3809 c-23 -19 -23 -20 -2 -10 12 6 25 16 28 21 10 16 -1 12
-26 -11z"/>
<path d="M6965 3400 c3 -5 10 -10 16 -10 5 0 9 5 9 10 0 6 -7 10 -16 10 -8 0
-12 -4 -9 -10z"/>
<path d="M7340 3310 c0 -12 8 -12 35 0 18 8 17 9 -7 9 -16 1 -28 -3 -28 -9z"/>
<path d="M7472 3308 c6 -18 28 -21 28 -4 0 9 -7 16 -16 16 -9 0 -14 -5 -12
-12z"/>
<path d="M7270 3295 c-10 -12 -10 -15 4 -15 9 0 16 7 16 15 0 8 -2 15 -4 15
-2 0 -9 -7 -16 -15z"/>
<path d="M4327 4423 c-11 -11 -8 -23 6 -23 8 0 14 7 14 15 0 16 -9 19 -20 8z"/>
<path d="M4800 3930 c0 -5 5 -10 11 -10 5 0 7 5 4 10 -3 6 -8 10 -11 10 -2 0
-4 -4 -4 -10z"/>
<path d="M5827 3909 c-3 -8 -10 -39 -16 -69 -7 -30 -26 -95 -43 -143 -16 -49
-28 -91 -25 -93 3 -3 9 9 15 25 6 18 18 31 27 31 12 0 15 6 11 23 -3 12 -3 16
0 9 5 -10 9 -10 20 -1 11 9 14 8 14 -2 0 -7 9 -4 24 10 25 24 46 21 46 -5 0
-8 6 -14 13 -14 19 0 42 18 34 27 -5 4 -12 1 -17 -6 -5 -10 -8 -6 -7 12 2 24
3 25 22 9 11 -9 30 -27 42 -40 39 -39 25 -9 -18 38 -22 25 -62 81 -89 124 -28
45 -51 73 -53 65z"/>
<path d="M5010 3763 c0 -10 5 -25 10 -33 8 -12 10 -9 10 12 0 15 -4 30 -10 33
-5 3 -10 -2 -10 -12z"/>
<path d="M4991 3714 c0 -11 3 -14 6 -6 3 7 2 16 -1 19 -3 4 -6 -2 -5 -13z"/>
<path d="M5016 3655 c14 -58 24 -83 18 -40 -3 22 -10 47 -15 55 -6 10 -7 5 -3
-15z"/>
<path d="M5064 3664 c3 -9 6 -18 6 -20 0 -11 17 -2 28 16 11 18 10 20 -14 20
-20 0 -25 -4 -20 -16z"/>
<path d="M5090 3605 c-12 -19 -26 -33 -31 -29 -11 7 -11 -7 0 -25 7 -10 13
-11 30 -2 23 13 30 4 28 -31 -1 -23 -6 -23 -23 -1 -7 10 -16 15 -20 11 -8 -9
12 -60 35 -87 44 -52 51 -62 51 -67 0 -11 70 -73 97 -87 44 -22 113 -28 173
-14 44 10 59 19 75 44 11 18 26 32 34 33 8 0 11 3 8 6 -4 4 5 20 18 36 14 16
25 34 25 39 0 12 -67 12 -75 -1 -3 -5 -11 -10 -16 -10 -6 0 -7 5 -4 10 3 6 1
10 -4 10 -19 0 -12 29 9 42 11 7 20 18 20 25 0 18 -37 16 -44 -2 -3 -8 -12
-15 -20 -15 -7 0 -16 7 -20 15 -3 8 -12 15 -21 15 -8 0 -15 5 -15 10 0 6 -9
10 -20 10 -11 0 -20 -4 -20 -10 0 -5 -9 -10 -20 -10 -11 0 -20 5 -20 10 0 6
-7 10 -15 10 -9 0 -18 12 -21 30 -6 26 -11 30 -43 31 -20 1 -44 0 -55 -1 -10
-1 -22 2 -25 7 -3 4 -16 13 -28 20 -20 11 -24 9 -43 -22z"/>
<path d="M4578 3593 c-10 -2 -18 -8 -18 -13 0 -10 38 -1 46 11 5 9 1 10 -28 2z"/>
<path d="M5726 3573 c-6 -14 -5 -15 5 -6 7 7 10 15 7 18 -3 3 -9 -2 -12 -12z"/>
<path d="M5602 3450 c0 -14 2 -19 5 -12 2 6 2 18 0 25 -3 6 -5 1 -5 -13z"/>
<path d="M2831 3224 c0 -11 3 -14 6 -6 3 7 2 16 -1 19 -3 4 -6 -2 -5 -13z"/>
<path d="M2859 3100 c-5 -55 -4 -68 7 -58 3 3 4 30 2 59 l-3 54 -6 -55z"/>
<path d="M2880 3046 c0 -2 9 -6 20 -9 11 -3 18 -1 14 4 -5 9 -34 13 -34 5z"/>
<path d="M3143 2803 c9 -2 23 -2 30 0 6 3 -1 5 -18 5 -16 0 -22 -2 -12 -5z"/>
<path d="M3510 2430 c0 -11 4 -20 9 -20 5 0 7 9 4 20 -3 11 -7 20 -9 20 -2 0
-4 -9 -4 -20z"/>
<path d="M3520 2370 c0 -5 5 -10 10 -10 6 0 10 5 10 10 0 6 -4 10 -10 10 -5 0
-10 -4 -10 -10z"/>
<path d="M3700 2200 c0 -5 5 -10 11 -10 5 0 7 5 4 10 -3 6 -8 10 -11 10 -2 0
-4 -4 -4 -10z"/>
<path d="M3710 2157 c-12 -17 -22 -77 -14 -77 1 0 13 18 27 39 20 31 23 42 14
50 -9 7 -17 4 -27 -12z m1 -34 c-12 -20 -14 -14 -5 12 4 9 9 14 11 11 3 -2 0
-13 -6 -23z"/>
<path d="M4371 3874 c0 -11 3 -14 6 -6 3 7 2 16 -1 19 -3 4 -6 -2 -5 -13z"/>
<path d="M4600 2470 c0 -5 5 -10 10 -10 6 0 10 5 10 10 0 6 -4 10 -10 10 -5 0
-10 -4 -10 -10z"/>
<path d="M5916 2163 l-20 -27 27 20 c14 10 27 22 27 27 0 15 -16 6 -34 -20z"/>
<path d="M5846 2141 c-3 -5 2 -15 12 -22 15 -12 16 -12 5 2 -7 9 -10 19 -6 22
3 4 4 7 0 7 -3 0 -8 -4 -11 -9z"/>
<path d="M4850 1916 c0 -2 7 -9 15 -16 12 -10 15 -10 15 4 0 9 -7 16 -15 16
-8 0 -15 -2 -15 -4z"/>
<path d="M5603 1705 c0 -7 6 -11 14 -8 7 3 13 6 13 8 0 2 -6 5 -13 8 -8 3 -14
-1 -14 -8z"/>
<path d="M4720 1690 c0 -5 5 -10 10 -10 6 0 10 5 10 10 0 6 -4 10 -10 10 -5 0
-10 -4 -10 -10z"/>
<path d="M5230 1580 c8 -5 20 -10 25 -10 6 0 3 5 -5 10 -8 5 -19 10 -25 10 -5
0 -3 -5 5 -10z"/>
<path d="M4797 1566 c-8 -20 8 -29 33 -21 20 6 28 25 11 25 -5 0 -16 3 -24 6
-8 3 -17 -2 -20 -10z"/>
<path d="M5053 1573 c9 -2 23 -2 30 0 6 3 -1 5 -18 5 -16 0 -22 -2 -12 -5z"/>
<path d="M5158 1573 c7 -3 16 -2 19 1 4 3 -2 6 -13 5 -11 0 -14 -3 -6 -6z"/>
<path d="M5112 1561 c-11 -6 -10 -10 4 -15 9 -3 19 -4 22 -1 3 3 -1 5 -9 5
-11 0 -11 2 1 10 8 5 11 10 5 10 -5 0 -16 -4 -23 -9z"/>
<path d="M5068 1533 c6 -2 18 -2 25 0 6 3 1 5 -13 5 -14 0 -19 -2 -12 -5z"/>
</g>
</svg>
